<svg id="b6208917-84d6-4792-92f8-aaaa370c5d13" data-name="Layer 1" xmlns="http://www.w3.org/2000/svg" viewBox="0 0 284.68 447.52"><defs><style>.ac600824-638e-455e-8cd3-67a53a664461{fill:#231f20;}.a3aa3e5e-9d0b-43c9-880b-11308aa70ea4,.acb5e138-8ad6-43db-8f20-516ee9deb377,.b5385182-8d94-42e7-aaa0-00addb90a7f9{fill:none;stroke:#231f20;}.acb5e138-8ad6-43db-8f20-516ee9deb377,.b5385182-8d94-42e7-aaa0-00addb90a7f9{stroke-linecap:round;stroke-linejoin:round;}.acb5e138-8ad6-43db-8f20-516ee9deb377{stroke-width:3px;}.b5385182-8d94-42e7-aaa0-00addb90a7f9{stroke-width:2px;}.e01ddd39-e335-4b7f-930f-0e7685832536,.ffd74fcd-b5c2-432b-981e-769bc5d1f9ba{fill:#d2de26;}.ffd74fcd-b5c2-432b-981e-769bc5d1f9ba{opacity:0.46;}.a3aa3e5e-9d0b-43c9-880b-11308aa70ea4{stroke-miterlimit:10;}</style></defs><path class="ac600824-638e-455e-8cd3-67a53a664461" d="M303.28,310l-3.56.21-3.57.16-3.59.25-3.48.87-3.45,1-3.45,1L279,315.06l-3.34,1.32-3.07,1.84-3,2-3.09,1.85-2.57,2.52-2.44,2.61-2.61,2.46-2,3-2.3,2.77-1.48,3.27-1.61,3.2-1.16,3.37-1,3.43-.73,3.49-.45,3.54-.45,3.57.37,3.57.52,3.54L249,370l1,3.46,1.51,3.26,1.63,3.17,1.61,3.19,2.06,2.93,1.93,3,2.4,2.67,2.62,2.46,3,2.05,2.9,2.09,2.86,2.18,3.28,1.46,3.09,1.83,3.32,1.36,3.49.84,3.45.95,3.45,1,3.57.37,3.57.31,3.58.3,3.58-.42,3.58-.14,3.5-.8,3.6-.27,3.48-.94,3.36-1.27,3.24-1.54,3.38-1.22,3.12-1.79L337,398.3l3.08-1.86,2.53-2.56,2.67-2.38,2.29-2.75,2.3-2.73,1.84-3.07,1.84-3.06,1.49-3.24,1.28-3.34,1.32-3.34.39-3.58.65-3.53.28-3.58-.43-3.57-.43-3.55-.75-3.5-1-3.41-1-3.45-1.47-3.28-2.13-2.9-2-3-2.13-2.87-2.3-2.74-2.54-2.52-2.9-2.12L337,320.2l-2.91-2.1-3.25-1.53L327.64,315l-3.21-1.62-3.45-1-3.52-.67L314,311l-3.5-.81-3.59-.16Zm-35.14,30.33.5-3.27,1.83-2.75,2.64-1.88,2.9-1.42,3.21-.48,3.19.6,3.08,1,2.34,2.27,1.78,2.7.68,3.19-.93,3.1-1.42,2.88-2.39,2.26-3.12,1-3.21.69-3.17-.79-3.11-1-2.45-2.18-1.78-2.76Zm44.31,53.48-3.47-.1L305.6,393l-3.21-1.28-3.18-1.3-2.95-1.8-2.52-2.34-2.49-2.4-1.68-3-1.51-3.09-.95-3.32.06-3.45v-3.44l.69-3.41,1.67-3,1.67-3,2.57-2.33,2.42-2.47,3-1.77,3.1-1.54,3.31-1,3.41-.6,3.46-.19,3.42.51,3.43.4,3.32,1,3,1.69,2.9,1.84,2.79,2,2.41,2.51,1.75,3,1.47,3.13.52,3.42.28,3.4-.23,3.4-.55,3.42L335.6,381l-2.14,2.73-2.06,2.78-2.86,2-2.91,1.81-3,1.72-3.31,1-3.44.33Z" transform="translate(-139.47 -108.36)"/><path class="acb5e138-8ad6-43db-8f20-516ee9deb377" d="M303.28,310l-3.56.21-3.57.16-3.59.25-3.48.87-3.45,1-3.45,1L279,315.06l-3.34,1.32-3.07,1.84-3,2-3.09,1.85-2.57,2.52-2.44,2.61-2.61,2.46-2,3-2.3,2.77-1.48,3.27-1.61,3.2-1.16,3.37-1,3.43-.73,3.49-.45,3.54-.45,3.57.37,3.57.52,3.54L249,370l1,3.46,1.51,3.26,1.63,3.17,1.61,3.19,2.06,2.93,1.93,3,2.4,2.67,2.62,2.46,3,2.05,2.9,2.09,2.86,2.18,3.28,1.46,3.09,1.83,3.32,1.36,3.49.84,3.45.95,3.45,1,3.57.37,3.57.31,3.58.3,3.58-.42,3.58-.14,3.5-.8,3.6-.27,3.48-.94,3.36-1.27,3.24-1.54,3.38-1.22,3.12-1.79L337,398.3l3.08-1.86,2.53-2.56,2.67-2.38,2.29-2.75,2.3-2.73,1.84-3.07,1.84-3.06,1.49-3.24,1.28-3.34,1.32-3.34.39-3.58.65-3.53.28-3.58-.43-3.57-.43-3.55-.75-3.5-1-3.41-1-3.45-1.47-3.28-2.13-2.9-2-3-2.13-2.87-2.3-2.74-2.54-2.52-2.9-2.12L337,320.2l-2.91-2.1-3.25-1.53L327.64,315l-3.21-1.62-3.45-1-3.52-.67L314,311l-3.5-.81-3.59-.16Zm-35.14,30.33.5-3.27,1.83-2.75,2.64-1.88,2.9-1.42,3.21-.48,3.19.6,3.08,1,2.34,2.27,1.78,2.7.68,3.19-.93,3.1-1.42,2.88-2.39,2.26-3.12,1-3.21.69-3.17-.79-3.11-1-2.45-2.18-1.78-2.76Zm44.31,53.48-3.47-.1L305.6,393l-3.21-1.28-3.18-1.3-2.95-1.8-2.52-2.34-2.49-2.4-1.68-3-1.51-3.09-.95-3.32.06-3.45v-3.44l.69-3.41,1.67-3,1.67-3,2.57-2.33,2.42-2.47,3-1.77,3.1-1.54,3.31-1,3.41-.6,3.46-.19,3.42.51,3.43.4,3.32,1,3,1.69,2.9,1.84,2.79,2,2.41,2.51,1.75,3,1.47,3.13.52,3.42.28,3.4-.23,3.4-.55,3.42L335.6,381l-2.14,2.73-2.06,2.78-2.86,2-2.91,1.81-3,1.72-3.31,1-3.44.33Z" transform="translate(-139.47 -108.36)"/><polygon class="acb5e138-8ad6-43db-8f20-516ee9deb377" points="122.72 301.93 126.21 303.5 127.81 306.98 126.64 310.49 123.63 312.43 120.35 313.79 117.2 315.41 114.08 317.11 110.82 318.55 107.69 320.26 104.81 322.36 101.91 324.41 98.91 326.34 96.28 328.75 93.66 331.17 91.38 333.93 89.57 336.99 87.59 339.9 84.53 340.02 81.34 340.03 79.09 338.03 79.52 334.44 81.09 331.09 83.44 328.25 85.91 325.54 88.67 323.14 91.25 320.54 94.09 318.21 97.13 316.15 100.12 314.02 103.09 311.85 106.22 309.92 109.42 308.13 112.72 306.52 115.92 304.72 119.19 303.05 122.72 301.93"/><path class="acb5e138-8ad6-43db-8f20-516ee9deb377" d="M227,454.51" transform="translate(-139.47 -108.36)"/><polyline class="b5385182-8d94-42e7-aaa0-00addb90a7f9" points="78.94 338.17 76.35 339.54 74.51 341.96 74.84 344.84 78.5 345.91 82.58 346.14 86.67 345.87 88.17 343.19 87.75 339.92"/><polygon class="ac600824-638e-455e-8cd3-67a53a664461" points="10.63 19.62 13.17 19.5 15.74 19.46 18.3 19.34 20.87 19.29 23.43 19.26 26 19.15 28.56 19.08 31.13 19.03 33.69 18.96 36.26 18.82 38.83 18.75 41.4 18.7 44 18.62 44.01 21.11 44.02 23.59 43.97 26.06 43.97 28.53 44 31.01 43.94 33.48 43.95 35.95 43.96 38.43 43.99 40.91 43.94 43.38 44.01 45.86 43.97 48.33 43.98 50.8 44.02 53.28 43.96 55.76 44 58.23 43.99 60.71 43.93 63.19 43.95 65.66 44 68.14 43.98 70.61 43.96 73.09 43.99 75.57 43.93 78.04 44.01 80.52 43.93 83 43.95 85.47 43.98 87.95 43.95 90.43 44.02 92.91 44.02 95.38 43.94 97.86 43.94 100.34 43.97 102.81 43.98 105.29 43.99 107.76 43.97 110.24 44.01 112.72 43.99 115.19 43.99 117.67 43.97 120.15 44.02 122.62 43.97 125.1 44.02 127.58 43.93 130.06 43.97 132.54 44.02 135.02 44.02 137.5 43.97 139.98 44 142.46 44 144.94 44 147.43 44 149.91 43.98 152.4 43.96 154.87 41.44 154.84 38.91 154.88 36.38 154.85 33.84 154.85 31.31 154.91 28.78 154.93 26.24 154.89 23.7 154.86 21.17 154.84 18.63 154.88 16.06 154.91 16 152.43 15.88 149.97 15.82 147.51 15.64 145.06 15.59 142.61 15.49 140.15 15.4 137.69 15.29 135.23 15.16 132.77 15.05 130.32 15.01 127.86 14.88 125.4 14.78 122.94 14.65 120.49 14.6 118.03 14.45 115.57 14.4 113.11 14.26 110.65 14.21 108.19 14.1 105.73 13.99 103.28 13.93 100.81 13.81 98.36 13.69 95.9 13.56 93.44 13.46 90.98 13.38 88.52 13.35 86.06 13.23 83.6 13.11 81.14 13.04 78.68 12.88 76.22 12.83 73.75 12.72 71.3 12.6 68.84 12.52 66.39 12.36 63.93 12.26 61.47 12.18 59.01 12.1 56.55 11.96 54.09 11.94 51.63 11.84 49.16 11.72 46.7 11.63 44.24 11.54 41.78 11.42 39.32 11.29 36.85 11.25 34.39 11.15 31.93 11.03 29.46 10.86 27 10.8 24.54 10.7 22.07 10.63 19.62"/><polygon class="b5385182-8d94-42e7-aaa0-00addb90a7f9" points="10.63 19.62 13.17 19.5 15.74 19.46 18.3 19.34 20.87 19.29 23.43 19.26 26 19.15 28.56 19.08 31.13 19.03 33.69 18.96 36.26 18.82 38.83 18.75 41.4 18.7 44 18.62 44.01 21.11 44.02 23.59 43.97 26.06 43.97 28.53 44 31.01 43.94 33.48 43.95 35.95 43.96 38.43 43.99 40.91 43.94 43.38 44.01 45.86 43.97 48.33 43.98 50.8 44.02 53.28 43.96 55.76 44 58.23 43.99 60.71 43.93 63.19 43.95 65.66 44 68.14 43.98 70.61 43.96 73.09 43.99 75.57 43.93 78.04 44.01 80.52 43.93 83 43.95 85.47 43.98 87.95 43.95 90.43 44.02 92.91 44.02 95.38 43.94 97.86 43.94 100.34 43.97 102.81 43.98 105.29 43.99 107.76 43.97 110.24 44.01 112.72 43.99 115.19 43.99 117.67 43.97 120.15 44.02 122.62 43.97 125.1 44.02 127.58 43.93 130.06 43.97 132.54 44.02 135.02 44.02 137.5 43.97 139.98 44 142.46 44 144.94 44 147.43 44 149.91 43.98 152.4 43.96 154.87 41.44 154.84 38.91 154.88 36.38 154.85 33.84 154.85 31.31 154.91 28.78 154.93 26.24 154.89 23.7 154.86 21.17 154.84 18.63 154.88 16.06 154.91 16 152.43 15.88 149.97 15.82 147.51 15.64 145.06 15.59 142.61 15.49 140.15 15.4 137.69 15.29 135.23 15.16 132.77 15.05 130.32 15.01 127.86 14.88 125.4 14.78 122.94 14.65 120.49 14.6 118.03 14.45 115.57 14.4 113.11 14.26 110.65 14.21 108.19 14.1 105.73 13.99 103.28 13.93 100.81 13.81 98.36 13.69 95.9 13.56 93.44 13.46 90.98 13.38 88.52 13.35 86.06 13.23 83.6 13.11 81.14 13.04 78.68 12.88 76.22 12.83 73.75 12.72 71.3 12.6 68.84 12.52 66.39 12.36 63.93 12.26 61.47 12.18 59.01 12.1 56.55 11.96 54.09 11.94 51.63 11.84 49.16 11.72 46.7 11.63 44.24 11.54 41.78 11.42 39.32 11.29 36.85 11.25 34.39 11.15 31.93 11.03 29.46 10.86 27 10.8 24.54 10.7 22.07 10.63 19.62"/><polyline class="b5385182-8d94-42e7-aaa0-00addb90a7f9" points="43.94 11.21 41.42 11.23 38.9 11.29 36.38 11.32 33.86 11.36 31.34 11.48 28.81 11.44 26.29 11.56 23.76 11.55 21.24 11.56 18.71 11.65 16.2 11.7 13.67 11.78 11.14 11.79 8.62 11.85 6.09 11.85 3.56 11.9 1.05 11.98 1.03 14.18 1.01 16.41 1 18.68 3.55 18.63 6.07 18.63 8.6 18.55 11.12 18.47 13.65 18.47 16.17 18.5 18.7 18.42 21.22 18.39 23.75 18.34 26.28 18.36 28.8 18.34 31.32 18.23 33.85 18.27 36.38 18.19 38.91 18.14 41.44 18.12 43.98 18.08"/><path class="b5385182-8d94-42e7-aaa0-00addb90a7f9" d="M183.41,119.58" transform="translate(-139.47 -108.36)"/><path class="b5385182-8d94-42e7-aaa0-00addb90a7f9" d="M187.31,119.53" transform="translate(-139.47 -108.36)"/><polyline class="b5385182-8d94-42e7-aaa0-00addb90a7f9" points="74.58 17.77 76.8 17.74 79.02 17.74 81.24 17.68 83.45 17.62 84.16 15.24 84.95 12.87 85.64 10.51 83.21 10.54 80.74 10.61 78.28 10.61 75.81 10.65 73.33 10.7 70.86 10.74 68.39 10.82 65.91 10.86"/><path class="b5385182-8d94-42e7-aaa0-00addb90a7f9" d="M214.05,126.1" transform="translate(-139.47 -108.36)"/><path class="b5385182-8d94-42e7-aaa0-00addb90a7f9" d="M187.31,126.48" transform="translate(-139.47 -108.36)"/><path class="b5385182-8d94-42e7-aaa0-00addb90a7f9" d="M187.31,126.43" transform="translate(-139.47 -108.36)"/><path class="b5385182-8d94-42e7-aaa0-00addb90a7f9" d="M183.44,126.45" transform="translate(-139.47 -108.36)"/><path class="b5385182-8d94-42e7-aaa0-00addb90a7f9" d="M184.11,263.62" transform="translate(-139.47 -108.36)"/><path class="b5385182-8d94-42e7-aaa0-00addb90a7f9" d="M187.31,263.71" transform="translate(-139.47 -108.36)"/><polyline class="b5385182-8d94-42e7-aaa0-00addb90a7f9" points="64.67 158.63 67.39 158.68 70.11 158.72 72.84 158.71 75.54 158.78 75.57 155.64 72.54 155.57 69.51 155.58"/><path class="b5385182-8d94-42e7-aaa0-00addb90a7f9" d="M204.14,267" transform="translate(-139.47 -108.36)"/><path class="b5385182-8d94-42e7-aaa0-00addb90a7f9" d="M187.31,266.62" transform="translate(-139.47 -108.36)"/><path class="b5385182-8d94-42e7-aaa0-00addb90a7f9" d="M187.31,266.67" transform="translate(-139.47 -108.36)"/><path class="b5385182-8d94-42e7-aaa0-00addb90a7f9" d="M184.13,266.57" transform="translate(-139.47 -108.36)"/><polyline class="b5385182-8d94-42e7-aaa0-00addb90a7f9" points="44.65 155.27 42.09 155.25 39.53 155.17 36.96 155.21 34.4 155.21 31.84 155.12 29.28 155.05 26.72 155.02 24.16 155.01 21.6 155.02 19.04 154.98 16.47 154.95 13.9 154.88 11.3 154.85 11.36 157.54 13.9 157.61 16.46 157.68 19.02 157.69 21.58 157.73 24.14 157.84 26.71 157.88 29.26 157.91 31.83 157.94 34.39 157.98 36.95 158.07 39.52 158.13 42.09 158.13 44.66 158.19"/><polyline class="b5385182-8d94-42e7-aaa0-00addb90a7f9" points="5.56 18.64 5.65 21.1 5.83 23.56 5.88 26.02 6.09 28.47 6.22 30.93 6.36 33.39 6.43 35.85 6.56 38.31 6.72 40.77 6.86 43.23 7.04 45.69 7.1 48.15 7.26 50.61 7.47 53.07 7.6 55.53 7.67 58 7.82 60.45 7.97 62.91 8.11 65.38 8.19 67.84 8.39 70.3 8.51 72.76 8.6 75.22 8.75 77.68 8.88 80.15 9.09 82.61 9.23 85.07 9.32 87.53 9.5 89.99 9.61 92.46 9.76 94.92 9.91 97.38 9.98 99.85 10.16 102.3 10.23 104.76 10.43 107.22 10.52 109.68 10.72 112.14 10.79 114.61 10.98 117.06 11.07 119.53 11.23 121.99 11.4 124.46 11.51 126.92 11.59 129.39 11.73 131.85 11.89 134.32 12.08 136.78 12.2 139.24 12.35 141.71 12.44 144.18 12.62 146.64 12.69 149.11 12.86 151.58 13.03 154.06"/><polygon class="b5385182-8d94-42e7-aaa0-00addb90a7f9" points="74.69 15.54 72.4 14.38 70.17 13.16 67.95 11.93 65.7 10.75 63.49 9.5 61.24 8.33 59.02 7.1 56.78 5.9 54.55 4.68 52.33 3.43 50.07 2.27 47.84 1 47.87 3.48 47.87 5.95 47.86 8.42 47.89 10.88 47.84 13.35 47.88 15.81 47.87 18.28 47.83 20.75 47.8 23.21 47.89 25.68 47.88 28.16 47.82 30.63 47.81 33.1 47.85 35.56 47.9 38.03 47.86 40.5 47.84 42.97 47.89 45.44 47.82 47.91 47.83 50.38 47.84 52.85 47.87 55.32 47.84 57.79 47.83 60.26 47.85 62.73 47.84 65.2 47.89 67.67 47.89 70.14 47.9 72.61 47.85 75.08 47.83 77.55 47.84 80.02 47.87 82.49 47.83 84.97 47.86 87.44 47.88 89.91 47.81 92.38 47.82 94.85 47.8 97.33 47.81 99.8 47.83 102.27 47.89 104.74 47.85 107.22 47.86 109.69 47.85 112.16 47.81 114.64 47.82 117.11 47.8 119.57 47.86 122.04 47.85 124.52 47.84 126.99 47.81 129.46 47.83 131.93 47.83 134.4 47.82 136.88 47.86 139.35 47.89 141.82 47.8 144.3 47.83 146.78 47.8 149.25 47.84 151.73 47.81 154.2 47.84 156.67 47.9 159.15 47.83 161.63 47.81 164.11 47.87 166.59 47.85 169.07 49.9 167.75 51.98 166.49 54.04 165.18 56.12 163.91 58.22 162.67 60.25 161.32 62.34 160.06 64.41 158.78 66.46 157.44 68.57 156.21 70.61 154.88 70.67 152.4 70.81 149.91 70.85 147.43 70.9 144.95 70.96 142.46 71.03 139.98 71.16 137.5 71.24 135.01 71.27 132.52 71.31 130.03 71.44 127.55 71.44 125.06 71.53 122.58 71.64 120.1 71.68 117.61 71.78 115.12 71.8 112.63 71.9 110.15 72.03 107.66 72.1 105.18 72.17 102.69 72.16 100.2 72.31 97.71 72.33 95.23 72.43 92.74 72.48 90.25 72.59 87.76 72.59 85.27 72.73 82.79 72.79 80.3 72.86 77.81 72.93 75.32 72.96 72.83 73.09 70.35 73.1 67.86 73.25 65.38 73.32 62.89 73.34 60.4 73.43 57.92 73.44 55.43 73.52 52.94 73.64 50.45 73.67 47.96 73.75 45.47 73.89 42.99 73.96 40.49 74.03 38.01 74.09 35.51 74.11 33.02 74.2 30.53 74.31 28.04 74.31 25.55 74.44 23.06 74.48 20.56 74.62 18.07 74.69 15.54"/><polygon class="b5385182-8d94-42e7-aaa0-00addb90a7f9" points="43.94 2.16 45.88 1.6 47.86 1.01 47.88 3.48 47.87 5.95 47.84 8.42 47.84 10.88 47.86 13.35 47.83 15.81 47.86 18.28 47.88 20.75 47.86 23.21 47.87 25.68 47.88 28.16 47.88 30.63 47.86 33.1 47.83 35.56 47.8 38.03 47.81 40.5 47.88 42.97 47.83 45.44 47.88 47.91 47.8 50.38 47.85 52.85 47.88 55.32 47.83 57.79 47.86 60.26 47.81 62.73 47.8 65.2 47.88 67.67 47.83 70.14 47.8 72.61 47.89 75.08 47.85 77.55 47.87 80.02 47.87 82.49 47.88 84.97 47.86 87.44 47.89 89.91 47.83 92.38 47.86 94.85 47.86 97.33 47.85 99.8 47.89 102.27 47.83 104.74 47.82 107.22 47.89 109.69 47.81 112.16 47.87 114.64 47.86 117.11 47.88 119.57 47.85 122.04 47.85 124.52 47.86 126.99 47.9 129.46 47.88 131.93 47.8 134.4 47.84 136.88 47.82 139.35 47.8 141.82 47.87 144.3 47.82 146.78 47.89 149.25 47.84 151.73 47.81 154.2 47.86 156.67 47.9 159.15 47.82 161.63 47.89 164.11 47.84 166.59 47.83 169.05 46.28 167.75 44.67 166.46 44.72 163.96 44.63 161.48 44.68 158.99 44.6 156.51 44.65 154.03 44.66 151.54 44.61 149.05 44.58 146.57 44.59 144.08 44.55 141.59 44.57 139.1 44.55 136.61 44.59 134.13 44.52 131.64 44.48 129.16 44.54 126.67 44.54 124.18 44.51 121.69 44.49 119.2 44.48 116.72 44.48 114.23 44.41 111.74 44.44 109.25 44.43 106.77 44.36 104.28 44.41 101.79 44.41 99.3 44.36 96.81 44.36 94.32 44.37 91.83 44.34 89.34 44.29 86.85 44.33 84.36 44.33 81.87 44.32 79.39 44.25 76.9 44.24 74.4 44.27 71.91 44.18 69.42 44.26 66.93 44.2 64.44 44.2 61.95 44.16 59.46 44.21 56.97 44.18 54.48 44.19 52 44.08 49.51 44.11 47.02 44.11 44.53 44.13 42.04 44.12 39.55 44.07 37.06 44.01 34.57 44.07 32.08 43.99 29.58 44.02 27.09 43.98 24.6 43.96 22.1 43.98 19.61 43.98 17.12 43.97 14.63 43.99 12.13 43.92 9.64 43.87 7.14 43.88 4.64 43.94 2.16"/><polyline class="b5385182-8d94-42e7-aaa0-00addb90a7f9" points="80.41 17.68 80.31 20.17 80.16 22.67 80.06 25.16 79.9 27.66 79.8 30.15 79.69 32.65 79.55 35.15 79.52 37.65 79.32 40.15 79.22 42.64 79.14 45.14 79.02 47.64 78.93 50.14 78.81 52.63 78.71 55.13 78.62 57.64 78.43 60.13 78.37 62.63 78.28 65.13 78.17 67.63 78 70.13 77.97 72.63 77.83 75.13 77.71 77.63 77.57 80.13 77.46 82.63 77.37 85.13 77.29 87.63 77.18 90.13 76.99 92.63 76.91 95.13 76.77 97.63 76.65 100.13 76.58 102.63 76.43 105.12 76.4 107.62 76.26 110.12 76.17 112.62 76.02 115.12 75.92 117.62 75.83 120.12 75.67 122.62 75.59 125.13 75.48 127.63 75.39 130.13 75.26 132.63 75.18 135.14 75.02 137.64 74.95 140.14 74.77 142.64 74.72 145.15 74.54 147.65 74.5 150.16 74.38 152.67 74.29 155.18"/><polygon class="b5385182-8d94-42e7-aaa0-00addb90a7f9" points="53.69 19.53 56.19 20.58 58.71 21.66 61.27 22.67 61.2 25.12 61.11 27.56 61.05 29.99 61.05 32.43 60.95 34.87 60.93 37.31 60.8 39.74 60.74 42.18 60.71 44.63 60.65 47.06 60.58 49.51 60.54 51.95 60.45 54.39 60.38 56.83 60.33 59.27 60.34 61.72 60.19 64.15 60.16 66.6 60.12 69.04 60 71.48 60.02 73.93 59.93 76.38 59.89 78.86 56.77 78.85 53.71 78.79 53.64 76.36 53.66 73.89 53.72 71.42 53.67 68.96 53.68 66.49 53.72 64.02 53.64 61.55 53.72 59.08 53.65 56.61 53.71 54.14 53.65 51.67 53.63 49.2 53.67 46.73 53.7 44.26 53.69 41.78 53.7 39.31 53.67 36.84 53.65 34.37 53.64 31.9 53.71 29.42 53.65 26.95 53.72 24.47 53.67 21.99 53.69 19.53"/><polygon class="b5385182-8d94-42e7-aaa0-00addb90a7f9" points="63.83 23.62 63.79 26.07 63.76 28.5 63.72 30.93 63.59 33.35 63.63 35.79 63.53 38.22 63.53 40.65 63.44 43.08 63.44 45.52 63.31 47.95 63.28 50.38 63.25 52.82 63.18 55.25 63.15 57.69 63.06 60.12 63.03 62.56 63.06 64.99 62.98 67.42 62.96 69.86 62.85 72.3 62.84 74.74 62.78 77.18 62.71 79.63 65.74 80.23 68.76 80.91 68.86 78.36 68.91 75.83 69.11 73.29 69.19 70.76 69.24 68.22 69.42 65.69 69.44 63.15 69.59 60.62 69.67 58.08 69.85 55.54 69.96 53 69.98 50.46 70.11 47.93 70.25 45.39 70.33 42.85 70.46 40.32 70.5 37.77 70.62 35.23 70.78 32.69 70.86 30.15 70.95 27.61 68.58 26.3 66.21 24.96 63.83 23.62"/><polygon class="b5385182-8d94-42e7-aaa0-00addb90a7f9" points="53.69 88.03 53.66 90.72 53.69 93.42 53.71 96.09 56.21 95.98 58.75 95.82 61.29 95.76 63.83 95.62 66.36 95.42 68.91 95.33 68.88 93.16 68.95 90.99 68.9 88.83 66.37 88.73 63.84 88.54 61.3 88.41 58.76 88.29 56.22 88.2 53.69 88.03"/><polygon class="b5385182-8d94-42e7-aaa0-00addb90a7f9" points="52.56 154.07 54.69 153.06 56.81 152.04 58.95 151.02 58.93 148.48 58.88 145.97 58.9 143.47 58.96 140.96 58.88 138.44 58.94 135.93 58.87 133.42 58.91 130.91 58.88 128.4 58.93 125.89 58.95 123.37 58.89 120.86 58.87 118.35 58.94 115.84 58.95 113.32 58.89 110.81 58.9 108.29 58.95 105.77 58.9 103.27 56.8 103.3 54.69 103.29 52.6 103.28 52.52 105.79 52.57 108.33 52.62 110.86 52.52 113.4 52.58 115.94 52.58 118.47 52.53 121.01 52.6 123.55 52.59 126.09 52.53 128.63 52.59 131.17 52.52 133.71 52.62 136.25 52.53 138.79 52.61 141.33 52.52 143.87 52.59 146.42 52.6 148.96 52.55 151.51 52.56 154.07"/><polygon class="b5385182-8d94-42e7-aaa0-00addb90a7f9" points="61.3 149.55 63.83 148.83 66.37 148.11 68.92 147.36 68.93 144.81 68.93 142.28 68.93 139.74 68.87 137.21 68.92 134.67 68.89 132.13 68.94 129.6 68.94 127.06 68.87 124.52 68.86 121.99 68.91 119.45 68.9 116.91 68.88 114.38 68.91 111.84 68.94 109.3 68.86 106.76 68.89 104.21 68.93 101.64 66.38 102.22 63.83 102.69 61.26 103.22 61.33 105.69 61.32 108.12 61.3 110.56 61.34 112.99 61.32 115.43 61.27 117.86 61.25 120.3 61.31 122.73 61.24 125.17 61.3 127.61 61.27 130.05 61.24 132.49 61.3 134.92 61.33 137.35 61.27 139.79 61.28 142.24 61.34 144.68 61.32 147.12 61.3 149.55"/><polyline class="acb5e138-8ad6-43db-8f20-516ee9deb377" points="123.71 354.96 123.12 358.67 122.32 362.28 122.15 365.97 121.86 369.63 121.69 373.31 121.13 376.96 121.23 380.66 121.01 384.34 120.92 388.02 120.71 391.69 120.97 395.36 124.38 395.73 127.81 395.98 131.25 396.1 134.59 395.32 135.4 391.93 136 388.46 136.32 384.97 136.36 381.45 136.74 377.96 137.15 374.47 137.03 370.94 137.55 367.45 137.67 363.93 137.33 360.41 137.19 357.11"/><polyline class="b5385182-8d94-42e7-aaa0-00addb90a7f9" points="121.02 395.19 119.35 397.19 118.5 399.68 118.06 402.27 118.7 404.75 121.03 405.66 123.46 406.39 125.91 407.05 128.43 407.43 130.94 407.78 133.48 407.98 136 408.16 136.95 406.14 136.95 403.7 136.44 401.32 135.95 398.91 134.63 396.85 132.49 395.86"/><polyline class="acb5e138-8ad6-43db-8f20-516ee9deb377" points="167.87 357.76 167.12 360.9 166.63 364.32 166.33 367.77 166.16 371.22 166.41 374.68 166.41 378.14 166.12 381.59 166.11 385.06 166.34 388.51 166.64 391.95 167.09 395.28 171.01 396.2 175.04 395.67 179.02 395.22 179.65 392.01 180.11 388.58 179.97 385.12 180.39 381.67 180.02 378.22 180.18 374.76 179.93 371.31 179.72 367.86 179.99 364.38 179.72 360.94 178.95 357.64"/><polyline class="b5385182-8d94-42e7-aaa0-00addb90a7f9" points="167.07 395.34 164.38 397.62 162.48 400.74 161.84 404.21 165.07 405.81 168.84 406.35 172.56 407.19 176.38 407.25 180.15 407.79 183.77 407.32 184.19 404.01 183.35 400.57 181.89 397.33 179.01 395.51"/><polyline class="acb5e138-8ad6-43db-8f20-516ee9deb377" points="113.91 305.51 115.04 301.91 116.42 298.4 118.03 295 120.2 291.93 123.12 289.54 126.85 289.56 129.98 291.2 132.79 293.34 135.33 295.8 137.23 298.77 138.95 301.86 140.13 305.21 140.7 308.71 141.17 312.22 141.34 315.76 141.05 319.3 140.79 322.83 140.29 326.34 139.48 329.8 138.68 333.24 137.91 336.71 136.86 340.09 135.64 343.42 134.44 346.75 133.22 350.08 131.88 353.36 130.41 356.54 134.05 356.76 137.73 356.99 141.41 357.09 145.09 357.39 148.78 357.38 152.46 357.61 156.14 357.66 159.83 357.56 163.51 357.66 167.2 357.43 170.89 357.48 174.57 357.21 178.26 357.08 181.94 356.9 185.61 356.46 189.27 356.03 192.86 355.19 196.4 354.2 199.64 352.49 200.91 349.18 202.13 345.85 202.78 342.37 203.31 338.87 203.94 335.37 203.92 331.82 203.94 328.28 204.03 324.73 203.79 321.19 203.34 317.67 202.93 314.14 202.22 310.67 201.36 307.23 200.53 303.77 199.13 300.51 197.65 297.29 195.36 294.6 198.87 295.17 202.31 296.05 205.79 296.84 209.13 298.07 212.47 299.29 215.75 300.71 218.8 302.55 221.86 304.38 224.75 306.47 227.38 308.88 229.64 311.63 231.77 314.47 230.28 316.99 227.56 318.54 224.61 318.41 222.38 315.73 219.98 313.17 217.29 310.93 214.53 308.76 211.46 307.04 208.14 305.85 204.63 305.55 201.24 306.47"/><path class="acb5e138-8ad6-43db-8f20-516ee9deb377" d="M253.38,414" transform="translate(-139.47 -108.36)"/><path class="acb5e138-8ad6-43db-8f20-516ee9deb377" d="M250.82,426.86" transform="translate(-139.47 -108.36)"/><polyline class="acb5e138-8ad6-43db-8f20-516ee9deb377" points="130.38 356.49 126.77 355.84 123.26 354.76 119.86 353.35 116.78 351.34 114.08 348.82 112.44 345.5 111.37 342.26 110.86 338.87 110.48 335.47 110.52 332.04 110.39 328.61 110.5 325.18 110.95 321.77 111.26 318.35"/><polyline class="b5385182-8d94-42e7-aaa0-00addb90a7f9" points="224.77 318.56 223.81 321.24 224.81 323.94 228.39 323.33 231.99 322.37 235.12 320.26 234.35 316.74 231.81 314.65"/><polyline class="b5385182-8d94-42e7-aaa0-00addb90a7f9" points="74.65 344.72 72.15 346.76 69.99 349.11 68.55 351.96 68.37 355.06 70.92 356.67 74.11 356.89 77.31 356.27 78.84 353.69 80.8 351.68 83.54 354.1 86.53 356.71 89.92 356.94 92 354.24 91.61 350.81 89.76 347.84 87.54 345.28"/><polyline class="b5385182-8d94-42e7-aaa0-00addb90a7f9" points="223.94 323.9 221.84 327.65 222.64 331.87 226.03 331.78 229.29 330.27 230.82 328.33 231.86 326.09 234.45 326.79 236.64 328.52 239.49 327.09 240.88 324.11 238.5 321.25 234.91 320.42"/><polyline class="b5385182-8d94-42e7-aaa0-00addb90a7f9" points="115.56 305.11 115.6 307.51 116.64 309.92 117.55 312.37 119.36 314.27"/><polyline class="b5385182-8d94-42e7-aaa0-00addb90a7f9" points="106.46 310.02 106.62 312.14 107.94 314.41 109.57 316.45 111.33 318.22"/><polyline class="b5385182-8d94-42e7-aaa0-00addb90a7f9" points="98.71 315.05 98.95 317.28 100.04 319.53 101.35 321.66 103 323.51"/><polyline class="b5385182-8d94-42e7-aaa0-00addb90a7f9" points="89.9 321.82 90.91 323.82 92.07 326.04 93.46 328.14 95.16 329.89"/><polyline class="b5385182-8d94-42e7-aaa0-00addb90a7f9" points="80.48 332.81 82.22 334.47 84.47 335.7 86.82 336.71 89.34 337.11"/><polyline class="b5385182-8d94-42e7-aaa0-00addb90a7f9" points="122.52 361.74 124.89 362.8 127.34 363.55 129.9 363.81 132.46 363.96 135.01 363.93 137.44 363.28"/><polyline class="b5385182-8d94-42e7-aaa0-00addb90a7f9" points="121.82 371.15 124.18 372.01 126.72 372.53 129.3 372.71 131.88 372.98 134.48 373.05 137 372.55"/><polyline class="b5385182-8d94-42e7-aaa0-00addb90a7f9" points="121.64 380.44 123.92 381.61 126.41 382.07 128.93 382.41 131.46 382.61 134 382.53 136.38 381.74"/><polyline class="b5385182-8d94-42e7-aaa0-00addb90a7f9" points="120.75 388.54 123 389.69 125.48 390.23 128.02 390.46 130.53 390.78 133.06 391.15 135.51 390.66"/><polyline class="b5385182-8d94-42e7-aaa0-00addb90a7f9" points="166.77 364.29 169.26 365.03 171.9 365.32 174.57 365.42 177.24 365.19 179.78 364.38"/><polyline class="b5385182-8d94-42e7-aaa0-00addb90a7f9" points="166.3 372.03 168.59 372.54 170.88 372.92 173.2 373.11 175.52 373.25 177.86 373.38 180.01 372.61"/><polyline class="b5385182-8d94-42e7-aaa0-00addb90a7f9" points="166.22 379.46 168.5 379.92 170.85 379.92 173.2 379.97 175.54 379.61 177.87 379.31 180.23 379.08"/><polyline class="b5385182-8d94-42e7-aaa0-00addb90a7f9" points="180.09 387.97 178.01 389.08 175.65 389.34 173.28 389.43 170.91 389.44 168.53 389.31 166.33 388.47"/><polyline class="b5385182-8d94-42e7-aaa0-00addb90a7f9" points="205.37 296.88 206.17 298.87 206.17 301.16 206.1 303.45 205.39 305.62"/><polyline class="b5385182-8d94-42e7-aaa0-00addb90a7f9" points="212.12 299.1 212.52 301.83 212.28 304.6 211.25 307.12"/><polyline class="b5385182-8d94-42e7-aaa0-00addb90a7f9" points="220.13 303.17 219.77 305.99 218.7 308.6 216.82 310.7"/><polyline class="b5385182-8d94-42e7-aaa0-00addb90a7f9" points="227.01 308.7 225.61 311.05 223.18 312.58 220.64 313.96"/><polygon class="b5385182-8d94-42e7-aaa0-00addb90a7f9" points="194.68 316.17 194.31 318.23 192.8 319.73 190.75 320.12 188.69 319.73 187.32 318.15 186.69 316.17 187.13 314.08 188.73 312.68 190.75 312.27 192.75 312.7 194.23 314.16 194.68 316.17"/><polygon class="b5385182-8d94-42e7-aaa0-00addb90a7f9" points="173.22 314.96 171.79 316.76 169.61 317.81 167.29 318.6 164.86 318.83 162.44 319.16 160 319.14 157.57 319.02 155.17 318.65 152.85 317.98 151.29 316.32 152.66 314.52 154.81 313.4 157.16 312.72 159.59 312.46 162.01 312.15 164.45 312.06 166.88 312.22 169.28 312.6 171.59 313.34 173.22 314.96"/><polygon class="b5385182-8d94-42e7-aaa0-00addb90a7f9" points="173.18 328.66 171.69 330.34 169.49 331.26 167.16 331.81 164.78 332.06 162.42 332.46 160.02 332.45 157.63 332.28 155.25 332.11 152.97 331.44 151.21 330.02 152.76 328.35 154.96 327.44 157.28 326.83 159.64 326.43 162.04 326.35 164.43 326.25 166.81 326.36 169.2 326.56 171.47 327.26 173.18 328.66"/><path class="ffd74fcd-b5c2-432b-981e-769bc5d1f9ba" d="M335.68,364.3c-1.32-8.68-11.41-15.43-23.67-15.43-13.15,0-23.81,7.77-23.81,17.36,0,1.23-.34,3.82,0,5l.42,2.68L332.77,536.4h90.75Z" transform="translate(-139.47 -108.36)"/><ellipse class="e01ddd39-e335-4b7f-930f-0e7685832536" cx="239.23" cy="428.79" rx="44.83" ry="18.73"/><polygon class="ac600824-638e-455e-8cd3-67a53a664461" points="252.12 190.92 253.38 192.79 255.4 193.79 257.67 193.7 259.36 192.22 260.55 190.13 261.81 188.07 263.13 186.04 264.68 184.21 267.28 183.46 270.01 183.51 272.63 184.3 274.69 186.03 275.06 188.8 274.45 191.55 273.37 194.14 271.89 195.95 270.08 197.46 268.18 198.84 266.39 200.39 264.8 202.09 263.99 204.34 263.6 206.71 263.48 209.12 263.86 211.47 265.91 212.52 268.35 212.25 270.68 211.51 271.87 208.97 272.12 206 273.54 203.89 275.45 202.17 277.49 200.62 279.47 198.99 281.25 197.15 282.36 195.16 283.29 193.08 283.86 190.88 284.18 188.63 284.1 186.36 283.48 184.18 281.9 182.17 279.91 180.52 277.67 179.24 275.28 178.26 272.83 177.46 270.29 176.99 267.71 176.76 265.14 177.04 262.66 177.75 260.29 178.75 258.12 180.14 256.26 181.93 254.59 183.9 253.1 186.01 252.15 188.4 252.12 190.92"/><polygon class="a3aa3e5e-9d0b-43c9-880b-11308aa70ea4" points="252.12 190.92 253.38 192.79 255.4 193.79 257.67 193.7 259.36 192.22 260.55 190.13 261.81 188.07 263.13 186.04 264.68 184.21 267.28 183.46 270.01 183.51 272.63 184.3 274.69 186.03 275.06 188.8 274.45 191.55 273.37 194.14 271.89 195.95 270.08 197.46 268.18 198.84 266.39 200.39 264.8 202.09 263.99 204.34 263.6 206.71 263.48 209.12 263.86 211.47 265.91 212.52 268.35 212.25 270.68 211.51 271.87 208.97 272.12 206 273.54 203.89 275.45 202.17 277.49 200.62 279.47 198.99 281.25 197.15 282.36 195.16 283.29 193.08 283.86 190.88 284.18 188.63 284.1 186.36 283.48 184.18 281.9 182.17 279.91 180.52 277.67 179.24 275.28 178.26 272.83 177.46 270.29 176.99 267.71 176.76 265.14 177.04 262.66 177.75 260.29 178.75 258.12 180.14 256.26 181.93 254.59 183.9 253.1 186.01 252.15 188.4 252.12 190.92"/><polygon class="ac600824-638e-455e-8cd3-67a53a664461" points="272.28 221.78 271.65 223.98 270.08 225.64 267.85 226.24 265.66 225.58 264.01 224 263.38 221.78 264.03 219.58 265.62 217.92 267.85 217.32 270.08 217.93 271.7 219.56 272.28 221.78"/><polygon class="a3aa3e5e-9d0b-43c9-880b-11308aa70ea4" points="272.28 221.78 271.65 223.98 270.08 225.64 267.85 226.24 265.66 225.58 264.01 224 263.38 221.78 264.03 219.58 265.62 217.92 267.85 217.32 270.08 217.93 271.7 219.56 272.28 221.78"/></svg>